<mxfile host="app.diagrams.net" agent="Mozilla/5.0 (Windows NT 10.0; Win64; x64) AppleWebKit/537.36 (KHTML, like Gecko) Chrome/133.0.0.0 Safari/537.36" version="26.0.16">
  <diagram name="PÃ¡gina-1" id="6eQdAJFIsTee301llXC2">
    <mxGraphModel dx="1707" dy="468" grid="1" gridSize="10" guides="1" tooltips="1" connect="1" arrows="1" fold="1" page="1" pageScale="1" pageWidth="827" pageHeight="1169" math="0" shadow="0">
      <root>
        <mxCell id="0" />
        <mxCell id="1" parent="0" />
        <mxCell id="OmEYK2h4O3htfnEAcw6b-6" style="edgeStyle=orthogonalEdgeStyle;rounded=0;orthogonalLoop=1;jettySize=auto;html=1;exitX=1;exitY=0.5;exitDx=0;exitDy=0;entryX=0;entryY=0.5;entryDx=0;entryDy=0;" edge="1" parent="1" source="OmEYK2h4O3htfnEAcw6b-1" target="OmEYK2h4O3htfnEAcw6b-4">
          <mxGeometry relative="1" as="geometry" />
        </mxCell>
        <mxCell id="OmEYK2h4O3htfnEAcw6b-1" value="&lt;b&gt;Contrato&lt;/b&gt;" style="rounded=0;whiteSpace=wrap;html=1;" vertex="1" parent="1">
          <mxGeometry x="-10" y="160" width="160" height="50" as="geometry" />
        </mxCell>
        <mxCell id="OmEYK2h4O3htfnEAcw6b-9" style="edgeStyle=orthogonalEdgeStyle;rounded=0;orthogonalLoop=1;jettySize=auto;html=1;exitX=0.5;exitY=1;exitDx=0;exitDy=0;entryX=0.5;entryY=0;entryDx=0;entryDy=0;" edge="1" parent="1" source="OmEYK2h4O3htfnEAcw6b-2" target="OmEYK2h4O3htfnEAcw6b-5">
          <mxGeometry relative="1" as="geometry" />
        </mxCell>
        <mxCell id="OmEYK2h4O3htfnEAcw6b-2" value="&lt;b&gt;Usuario&lt;/b&gt;" style="rounded=0;whiteSpace=wrap;html=1;" vertex="1" parent="1">
          <mxGeometry x="540" y="160" width="160" height="50" as="geometry" />
        </mxCell>
        <mxCell id="OmEYK2h4O3htfnEAcw6b-3" value="&lt;b&gt;Cuota&lt;/b&gt;" style="rounded=0;whiteSpace=wrap;html=1;" vertex="1" parent="1">
          <mxGeometry x="540" y="510" width="160" height="50" as="geometry" />
        </mxCell>
        <mxCell id="OmEYK2h4O3htfnEAcw6b-7" style="edgeStyle=orthogonalEdgeStyle;rounded=0;orthogonalLoop=1;jettySize=auto;html=1;exitX=1;exitY=0.5;exitDx=0;exitDy=0;entryX=0;entryY=0.5;entryDx=0;entryDy=0;" edge="1" parent="1" source="OmEYK2h4O3htfnEAcw6b-4" target="OmEYK2h4O3htfnEAcw6b-2">
          <mxGeometry relative="1" as="geometry" />
        </mxCell>
        <mxCell id="OmEYK2h4O3htfnEAcw6b-4" value="&lt;b&gt;Pertenece&lt;/b&gt;" style="rhombus;whiteSpace=wrap;html=1;" vertex="1" parent="1">
          <mxGeometry x="280" y="145" width="140" height="80" as="geometry" />
        </mxCell>
        <mxCell id="OmEYK2h4O3htfnEAcw6b-10" style="edgeStyle=orthogonalEdgeStyle;rounded=0;orthogonalLoop=1;jettySize=auto;html=1;exitX=0.5;exitY=1;exitDx=0;exitDy=0;entryX=0.5;entryY=0;entryDx=0;entryDy=0;" edge="1" parent="1" source="OmEYK2h4O3htfnEAcw6b-5" target="OmEYK2h4O3htfnEAcw6b-3">
          <mxGeometry relative="1" as="geometry" />
        </mxCell>
        <mxCell id="OmEYK2h4O3htfnEAcw6b-5" value="&lt;b&gt;Genera&lt;/b&gt;" style="rhombus;whiteSpace=wrap;html=1;" vertex="1" parent="1">
          <mxGeometry x="550" y="330" width="140" height="80" as="geometry" />
        </mxCell>
        <mxCell id="OmEYK2h4O3htfnEAcw6b-8" value="1.N" style="text;html=1;align=center;verticalAlign=middle;resizable=0;points=[];autosize=1;strokeColor=none;fillColor=none;" vertex="1" parent="1">
          <mxGeometry x="140" y="158" width="40" height="30" as="geometry" />
        </mxCell>
        <mxCell id="OmEYK2h4O3htfnEAcw6b-11" value="1.N" style="text;html=1;align=center;verticalAlign=middle;resizable=0;points=[];autosize=1;strokeColor=none;fillColor=none;" vertex="1" parent="1">
          <mxGeometry x="580" y="208" width="40" height="30" as="geometry" />
        </mxCell>
      </root>
    </mxGraphModel>
  </diagram>
</mxfile>
